  0
SECTION
  2
BLOCKS
  0
ENDSEC
  0
SECTION
  2
ENTITIES
  0
LINE
  8
0
 10
-4.94199
 20
-0.253601
 11
-4.97769
 21
-0.331589
  0
LINE
  8
0
 10
-4.97769
 20
-0.331589
 11
-4.99956
 21
-0.414536
  0
LINE
  8
0
 10
-4.99956
 20
-0.414536
 11
-5.00691
 21
-0.5
  0
LINE
  8
0
 10
-5.00691
 20
-0.5
 11
-5.00691
 21
-2.87202
  0
LINE
  8
0
 10
-5.00691
 20
-2.87202
 11
-1.38071
 21
-2.87202
  0
LINE
  8
0
 10
-1.38071
 20
-2.87202
 11
-1.38071
 21
-3.9586
  0
LINE
  8
0
 10
-1.38071
 20
-3.9586
 11
-2.58287
 21
-3.9586
  0
LINE
  8
0
 10
-2.58287
 20
-3.9586
 11
-2.58287
 21
-4.17851
  0
LINE
  8
0
 10
-2.58287
 20
-4.17851
 11
-0.886658
 21
-5.68192
  0
LINE
  8
0
 10
-0.886658
 20
-5.68192
 11
0.806564
 21
-5.68353
  0
LINE
  8
0
 10
0.806564
 20
-5.68353
 11
2.55833
 21
-4.19443
  0
LINE
  8
0
 10
2.55833
 20
-4.19443
 11
2.55833
 21
-3.9586
  0
LINE
  8
0
 10
2.55833
 20
-3.9586
 11
1.30785
 21
-3.9586
  0
LINE
  8
0
 10
1.30785
 20
-3.9586
 11
1.30785
 21
-2.87202
  0
LINE
  8
0
 10
1.30785
 20
-2.87202
 11
5.00691
 21
-2.87202
  0
LINE
  8
0
 10
5.00691
 20
-2.87202
 11
5.00691
 21
-0.5
  0
LINE
  8
0
 10
5.00691
 20
-0.5
 11
5.00473
 21
-0.453278
  0
LINE
  8
0
 10
5.00473
 20
-0.453278
 11
4.99818
 21
-0.406952
  0
LINE
  8
0
 10
4.99818
 20
-0.406952
 11
4.97505
 21
-0.324356
  0
LINE
  8
0
 10
4.97505
 20
-0.324356
 11
4.93323
 21
-0.238739
  0
LINE
  8
0
 10
4.93323
 20
-0.238739
 11
4.86046
 21
-0.146439
  0
LINE
  8
0
 10
4.86046
 20
-0.146439
 11
4.75691
 21
-0.0669861
  0
LINE
  8
0
 10
4.75691
 20
-0.0669861
 11
4.63632
 21
-0.0170288
  0
LINE
  8
0
 10
4.63632
 20
-0.0170288
 11
4.50691
 21
0
  0
LINE
  8
0
 10
4.50691
 20
0
 11
-4.50691
 21
0
  0
LINE
  8
0
 10
-4.50691
 20
0
 11
-4.5844
 21
-0.00602722
  0
LINE
  8
0
 10
-4.5844
 20
-0.00602722
 11
-4.66
 21
-0.0240021
  0
LINE
  8
0
 10
-4.66
 20
-0.0240021
 11
-4.76407
 21
-0.0711823
  0
LINE
  8
0
 10
-4.76407
 20
-0.0711823
 11
-4.83357
 21
-0.12146
  0
LINE
  8
0
 10
-4.83357
 20
-0.12146
 11
-4.89346
 21
-0.182861
  0
LINE
  8
0
 10
-4.89346
 20
-0.182861
 11
-4.94199
 21
-0.253601
  0
ENDSEC
  0
SECTION
  2
OBJECTS
  0
DICTIONARY
  0
ENDSEC
  0
EOF
